<svg width="13" height="14" viewBox="0 0 13 14" fill="none" xmlns="http://www.w3.org/2000/svg">
<path d="M1.37597 4.89537H1.33997C0.879473 4.89537 0.503723 5.25687 0.503723 5.69787V9.19662C0.503723 9.63912 0.878723 9.99987 1.33997 9.99987H1.37672C1.83722 9.99987 2.21297 9.63837 2.21297 9.19662V5.69787C2.21297 5.25612 1.83647 4.89387 1.37597 4.89387V4.89537ZM2.61347 10.5466C2.61347 10.9524 2.95847 11.2839 3.38222 11.2839H4.20347V13.1731C4.20347 13.6164 4.58072 13.9779 5.04047 13.9779H5.07647C5.53772 13.9779 5.91347 13.6164 5.91347 13.1731V11.2831H7.06247V13.1731C7.06247 13.6164 7.44047 13.9779 7.90022 13.9779H7.93547C8.39672 13.9779 8.77247 13.6164 8.77247 13.1731V11.2831H9.59447C10.0175 11.2831 10.3632 10.9531 10.3632 10.5466V5.02287H2.61347V10.5459V10.5466ZM8.41772 1.67412L9.07022 0.706616C9.0802 0.692007 9.08708 0.675511 9.09045 0.658143C9.09382 0.640775 9.0936 0.622902 9.08981 0.605622C9.08602 0.588342 9.07873 0.57202 9.0684 0.55766C9.05806 0.543299 9.0449 0.531204 9.02972 0.522116C8.99891 0.502464 8.96166 0.495547 8.92584 0.502822C8.89002 0.510098 8.85843 0.530998 8.83772 0.561116L8.16122 1.56237C7.62817 1.35457 7.06084 1.24874 6.48872 1.25037C5.91611 1.24869 5.34828 1.35452 4.81472 1.56237L4.13972 0.560366C4.11853 0.530591 4.08671 0.510096 4.05084 0.503117C4.01496 0.496138 3.97778 0.503208 3.94697 0.522866C3.93173 0.531891 3.9185 0.54394 3.9081 0.558272C3.89769 0.572604 3.89033 0.588914 3.88646 0.606199C3.8826 0.623483 3.88231 0.641376 3.88563 0.658775C3.88894 0.676174 3.89578 0.692711 3.90572 0.707366L4.55897 1.67487C3.38147 2.22912 2.58797 3.27312 2.58797 4.47162C2.58797 4.54512 2.59247 4.61787 2.59922 4.68912H10.3775C10.3842 4.61787 10.388 4.54512 10.388 4.47162C10.388 3.27312 9.59372 2.22912 8.41697 1.67412H8.41772ZM4.68497 3.40662C4.63668 3.40771 4.58865 3.39926 4.54364 3.38174C4.49863 3.36422 4.45752 3.33798 4.42268 3.30453C4.38783 3.27108 4.35994 3.23108 4.3406 3.18681C4.32126 3.14255 4.31085 3.09491 4.30997 3.04662C4.30997 2.84787 4.47797 2.68812 4.68497 2.68812C4.89272 2.68812 5.05997 2.84787 5.05997 3.04662C5.0591 3.09491 5.04869 3.14255 5.02935 3.18681C5.01001 3.23108 4.98211 3.27108 4.94727 3.30453C4.91243 3.33798 4.87132 3.36422 4.8263 3.38174C4.78129 3.39926 4.73326 3.40771 4.68497 3.40662ZM8.29172 3.40662C8.24343 3.40771 8.1954 3.39926 8.15039 3.38174C8.10538 3.36422 8.06427 3.33798 8.02943 3.30453C7.99458 3.27108 7.96669 3.23108 7.94735 3.18681C7.92801 3.14255 7.9176 3.09491 7.91672 3.04662C7.91672 2.84787 8.08472 2.68812 8.29172 2.68812C8.49872 2.68812 8.66522 2.84787 8.66522 3.04662C8.66444 3.09481 8.65415 3.14238 8.63494 3.18658C8.61573 3.23079 8.58797 3.27076 8.55327 3.30421C8.51856 3.33766 8.47759 3.36393 8.43271 3.3815C8.38783 3.39908 8.33991 3.40761 8.29172 3.40662ZM11.6352 4.89537H11.6007C11.1402 4.89537 10.763 5.25687 10.763 5.69787V9.19662C10.763 9.63912 11.1402 9.99987 11.6007 9.99987H11.636C12.0972 9.99987 12.4722 9.63837 12.4722 9.19662V5.69787C12.4722 5.25612 12.0965 4.89387 11.6352 4.89387V4.89537Z" fill="white"/>
</svg>
