<svg width="15" height="19" viewBox="0 0 15 19" fill="none" xmlns="http://www.w3.org/2000/svg">
<path d="M4.33549 18.3747C2.15749 11.8262 6.75926 9.437 6.75926 9.437C6.43734 12.9304 8.61395 15.6518 8.61395 15.6518C9.41426 15.4317 10.9422 14.4022 10.9422 14.4022C10.9422 15.6518 10.1356 18.3726 10.1356 18.3726C10.1356 18.3726 12.9582 16.3822 13.8464 13.0765C14.7333 9.77 12.1565 6.45108 12.1565 6.45108C12.3116 8.79108 11.4434 11.0923 9.7438 12.8508C9.82895 12.7608 9.90026 12.6618 9.95495 12.5531C10.2603 11.9965 10.7511 10.5482 10.4638 7.19392C10.0595 2.48554 5.38295 0.5 5.38295 0.5C5.78588 3.36892 4.57849 4.02938 1.74695 9.47508C-1.08459 14.9194 4.33549 18.3747 4.33549 18.3747Z" fill="white"/>
</svg>
