<svg width="19" height="19" viewBox="0 0 19 19" fill="none" xmlns="http://www.w3.org/2000/svg">
<path d="M18.1195 8.65399C17.2359 4.69154 15.9914 3.71381 15.2338 3.32272C14.0196 2.69517 12.6123 3.0609 12.1452 3.29735C11.615 3.5649 11.2574 4.07463 10.7182 4.29554C10.0956 4.54917 9.24879 4.61872 8.61143 4.3119C8.10415 4.06645 7.65579 3.54281 7.04052 3.31045C6.26161 3.0159 4.96233 2.60272 3.67779 3.50517C3.37343 3.7179 1.20688 5.49908 0.555607 11.0578C0.15388 14.486 2.07252 15.5897 2.00215 15.5398C2.49633 15.8859 3.6017 16.4725 5.09979 15.5545C6.10043 14.9409 6.91288 13.73 6.91288 13.73C6.91288 13.73 7.27533 13.0574 7.75561 12.7711C8.09597 12.5682 8.60488 12.722 8.60488 12.722H10.4065C10.4065 12.722 10.9784 12.6516 11.3802 12.8259C11.7696 12.992 11.9897 13.4035 11.9897 13.4035C11.9897 13.4035 13.1769 14.9065 14.315 15.6724C14.7993 15.998 16.7466 16.3727 17.7513 15.17C18.4083 14.3829 18.8559 11.9627 18.1195 8.65399ZM8.49606 8.30299C8.49606 8.37462 8.48194 8.44554 8.4545 8.51171C8.42707 8.57787 8.38686 8.63798 8.33617 8.68859C8.28549 8.7392 8.22532 8.77932 8.15911 8.80666C8.09291 8.83399 8.02196 8.84801 7.95033 8.8479H6.58561V10.2126C6.58561 10.3572 6.52822 10.4959 6.42606 10.5982C6.32389 10.7005 6.18529 10.7581 6.0407 10.7584H5.63161C5.55991 10.7585 5.4889 10.7444 5.42264 10.717C5.35638 10.6896 5.29618 10.6495 5.24548 10.5988C5.19478 10.5481 5.15459 10.4879 5.1272 10.4216C5.09981 10.3553 5.08577 10.2843 5.08588 10.2126V8.8479H3.71952C3.575 8.8479 3.4364 8.79049 3.33421 8.6883C3.23202 8.58611 3.17461 8.44751 3.17461 8.30299V7.8939C3.17461 7.59281 3.41924 7.34817 3.72033 7.34817H5.08506V5.9859C5.08506 5.68399 5.32888 5.43935 5.63079 5.43935H6.03988C6.34097 5.43935 6.58561 5.68399 6.58561 5.9859V7.34817H7.95033C8.25143 7.34817 8.49606 7.59199 8.49606 7.8939V8.30299ZM12.3399 10.2118C12.0686 10.2119 11.8085 10.1043 11.6166 9.91255C11.4247 9.72083 11.3169 9.46073 11.3167 9.18949C11.3166 8.91825 11.4243 8.65807 11.616 8.46619C11.8077 8.27432 12.0678 8.16646 12.3391 8.16635C12.6103 8.16625 12.8705 8.27389 13.0624 8.46561C13.2542 8.65734 13.3621 8.91743 13.3622 9.18867C13.3623 9.45992 13.2547 9.72009 13.0629 9.91197C12.8712 10.1038 12.6111 10.2117 12.3399 10.2118ZM14.216 7.94054C14.0807 7.94438 13.946 7.92106 13.8199 7.87195C13.6938 7.82284 13.5788 7.74894 13.4818 7.65461C13.3847 7.56029 13.3076 7.44746 13.2549 7.3228C13.2022 7.19814 13.1751 7.06419 13.1751 6.92885C13.1751 6.79352 13.2022 6.65957 13.2549 6.53491C13.3076 6.41025 13.3847 6.29742 13.4818 6.2031C13.5788 6.10877 13.6938 6.03487 13.8199 5.98576C13.946 5.93665 14.0807 5.91333 14.216 5.91717C14.4793 5.92466 14.7293 6.03453 14.913 6.22344C15.0966 6.41235 15.1993 6.66541 15.1993 6.92885C15.1993 7.1923 15.0966 7.44535 14.913 7.63426C14.7293 7.82317 14.4793 7.93305 14.216 7.94054Z" fill="white"/>
</svg>
