<svg width="19" height="19" viewBox="0 0 19 19" fill="none" xmlns="http://www.w3.org/2000/svg">
<path d="M10.0248 16.3588L7.35734 15.2051V2.64453C7.35734 2.64453 13.1551 3.62767 13.9531 6.06196C14.7511 8.49796 13.5073 10.0751 13.0702 10.1214C11.8531 10.25 11.3902 9.48025 11.3902 9.48025V5.55025L10.0668 4.99482L10.0248 16.3588ZM10.7859 14.9188V16.3588C10.7859 16.3588 17.3568 14.3548 18.3236 13.5817C19.2905 12.8102 16.0599 10.8885 14.3242 11.264C14.3242 11.264 12.4796 11.3488 10.8082 12.0362C10.7919 12.0431 10.8082 13.3305 10.8082 13.3305L15.0493 12.392L16.5433 13.0177L10.7859 14.9188ZM6.47963 14.2562C6.47963 14.2562 5.6722 14.6642 3.87305 14.6437C2.07305 14.6231 0.479626 14.1337 0.500197 13.0725C0.520768 12.0114 3.47963 10.8482 6.45905 10.3588V11.8485L3.29363 12.6645C3.29363 12.6645 2.75191 13.3382 3.47963 13.3588C4.50026 13.3806 5.5184 13.2494 6.5002 12.9697L6.47963 14.2554V14.2562Z" fill="white"/>
</svg>
