<svg width="19" height="19" viewBox="0 0 19 19" fill="none" xmlns="http://www.w3.org/2000/svg">
<path d="M4.5095 2.02663L4.48475 2.04912C4.5365 1.99512 4.6085 1.93663 4.658 1.90512C6.0665 0.989375 7.6955 0.5 9.5 0.5C11.1898 0.5 12.7715 0.966875 14.1238 1.778C14.2205 1.8365 14.4883 2.01987 14.6255 2.18637C13.325 0.74975 9.49213 3.83225 9.49213 3.83225C8.168 2.81075 6.94963 2.1155 6.04175 1.868C5.2835 1.65987 4.75925 1.83425 4.5095 2.02663ZM16.1026 3.38563C16.0633 3.34063 16.0194 3.30012 15.98 3.25512C15.6504 2.89287 15.2454 2.80512 14.8798 2.82987C14.5479 2.93338 13.0123 3.48688 11.12 5.27338C11.12 5.27338 13.2508 7.3445 14.5546 9.46175C15.8585 11.5801 16.6381 13.244 16.1589 15.5536C17.6682 13.8987 18.5034 11.7387 18.5 9.49887C18.5032 7.2314 17.6458 5.04696 16.1026 3.38563ZM12.8525 10.3663C12.0221 9.43889 11.1641 8.53661 10.2796 7.66062C10.0195 7.40095 9.75701 7.14368 9.49213 6.88888L8.53813 7.84963C7.84738 8.54712 6.95075 9.45838 6.4535 9.98938C5.56813 10.9344 3.03013 13.9032 2.88725 15.5671C2.88725 15.5671 2.3225 14.2464 3.56225 11.2021C4.37225 9.212 6.81688 6.224 7.83838 5.25087C7.83838 5.25087 6.90463 4.22375 5.73463 3.51388L5.72675 3.51163C5.72675 3.51163 5.71438 3.5015 5.693 3.48913C5.1305 3.15163 4.51513 2.89287 3.92338 2.85912C3.54629 2.89585 3.19533 3.06813 2.93563 3.344C1.348 5.10286 0.518011 7.41684 0.625778 9.7838C0.733546 12.1508 1.77037 14.3798 3.51127 15.9871C5.25216 17.5944 7.55666 18.4503 9.92469 18.3692C12.2927 18.288 14.5332 17.2763 16.16 15.5536C16.16 15.5514 15.9699 14.3656 14.7594 12.6624C14.4748 12.2641 13.4341 11.0199 12.8514 10.3674L12.8525 10.3663Z" fill="white"/>
</svg>
