<svg width="19" height="19" xmlns="http://www.w3.org/2000/svg" viewBox="8.3819e-8 0 16.36 20">
	<path d="M8.182 10c2.51 0 4.545-2.239 4.545-5s-1.47-5-4.545-5-4.546 2.239-4.546 5 2.036 5 4.546 5z
M.074 17.264c-.001-.194-.003-.055 0 0zm15.349.113c.003-.045 0-.312 0 0z
M16.354 16.994c-.08-4.797.228-4.31-4.83-5.176 0 0-1.682.86-3.342.86-1.66 0-3.341-.86-3.341-.86-5.004.856-4.736.349-4.829 5.02-.007.381-.01.401-.012.357v.504S1.206 20 8.183 20s8.181-2.3 8.181-2.3v-.374c0 .028-.003-.025-.009-.332z" fill="white"/>
</svg>
