<svg width="19" height="19" viewBox="0 0 19 19" fill="none" xmlns="http://www.w3.org/2000/svg">
<path d="M11.2214 12.2311C11.2214 12.0675 11.0799 11.966 10.9073 12.0077C10.9073 12.0077 10.0973 12.2008 9.5 12.2008C8.90272 12.2008 8.09272 12.0077 8.09272 12.0077C7.9209 11.9668 7.77854 12.0666 7.77854 12.2311V13.0967C7.77854 13.2604 7.925 13.3954 8.10336 13.3954H10.8966C11.075 13.3954 11.2214 13.2604 11.2214 13.0967V12.2311ZM14.4361 1.09727C14.4361 0.767545 14.1456 0.5 13.7865 0.5H5.21354C4.85436 0.5 4.5639 0.767545 4.5639 1.09727V6.02273C4.5639 7.56418 5.063 8.96736 5.9679 9.97373C6.41139 10.4713 6.95575 10.8687 7.56476 11.1396C8.17377 11.4105 8.83348 11.5485 9.5 11.5446C10.8664 11.5446 12.1198 10.9866 13.0321 9.97373C13.9378 8.96736 14.4361 7.56418 14.4361 6.02191V1.09727ZM3.94536 7.21809C3.05681 6.91455 2.64772 6.20927 2.64772 5.03682V2.37036H3.84881V1.17664H1.99809C1.63972 1.17664 1.34845 1.44418 1.34845 1.77391V5.03682C1.34845 7.02827 2.3859 8.24082 4.2939 8.52391C4.13445 8.10135 4.01769 7.6639 3.94536 7.21809ZM5.21272 14.2905C4.85436 14.2905 4.5639 14.558 4.5639 14.8877V17.843C4.5639 18.1719 4.85436 18.4403 5.21354 18.4403H13.7873C14.1456 18.4403 14.4361 18.1719 14.4361 17.843V14.8877C14.4361 14.558 14.1456 14.2905 13.7873 14.2905H5.21272ZM17.0019 1.17664H15.1512V2.37118H16.3523V5.03682C16.3523 6.20927 15.9432 6.91455 15.0546 7.21809C14.9823 7.66391 14.8656 8.10136 14.7061 8.52391C16.6141 8.24082 17.6515 7.02827 17.6515 5.03682V1.77391C17.6515 1.44418 17.3603 1.17664 17.0019 1.17664Z" fill="white"/>
</svg>
