<svg width="19" height="15" viewBox="0 0 19 15" fill="none" xmlns="http://www.w3.org/2000/svg">
<path d="M18.3092 0.490974C18.1875 0.374701 18.0248 0.311012 17.8565 0.313674H16.5713C16.4033 0.311249 16.241 0.374922 16.1195 0.490974C16.0594 0.543427 16.0113 0.608176 15.9783 0.680843C15.9454 0.75351 15.9285 0.832399 15.9287 0.912174V7.25717C15.8963 7.19016 15.8517 7.12974 15.7973 7.07897L8.6657 0.435174C8.5388 0.316374 8.4317 0.275874 8.3444 0.313674C8.2571 0.351474 8.2139 0.450474 8.2139 0.613374V7.25717C8.18178 7.19022 8.13753 7.12981 8.0834 7.07897L0.9518 0.435174C0.8249 0.316374 0.7178 0.275874 0.6305 0.313674C0.5432 0.351474 0.5 0.450474 0.5 0.613374V14.387C0.5 14.549 0.5441 14.6489 0.6305 14.6867C0.7178 14.7245 0.8249 14.6831 0.9518 14.5652L8.0834 7.92137C8.13478 7.86817 8.17868 7.80822 8.2139 7.74317V14.387C8.2139 14.549 8.258 14.6489 8.3444 14.6867C8.4317 14.7236 8.5388 14.6831 8.6657 14.5643L15.7973 7.92137C15.849 7.8682 15.8932 7.80825 15.9287 7.74317V14.0882C15.9287 14.2502 15.9917 14.3897 16.1195 14.5085C16.241 14.6245 16.4033 14.6882 16.5713 14.6858H17.8574C18.0311 14.6858 18.1814 14.6273 18.3092 14.5085C18.3693 14.456 18.4174 14.3912 18.4503 14.3186C18.4832 14.2459 18.5002 14.167 18.5 14.0873V0.912174C18.5002 0.832409 18.4832 0.753538 18.4503 0.68088C18.4174 0.608222 18.3693 0.543465 18.3092 0.490974Z" fill="white"/>
</svg>
