<svg width="19" height="19" viewBox="0 0 19 19" fill="none" xmlns="http://www.w3.org/2000/svg">
<path fill-rule="evenodd" clip-rule="evenodd" d="M1.679 2.73294C1.679 2.63754 1.7573 2.55924 1.8554 2.55924H6.8999C6.9476 2.55924 6.9926 2.57724 7.0259 2.61054L8.1086 3.67704C8.3615 3.92544 8.7116 4.06674 9.0671 4.06674H15.6128C16.5551 4.06674 17.321 4.82184 17.321 5.74884V5.92164H4.919C4.172 5.92164 3.5645 6.52104 3.5645 7.25634V16.4408H3.3872C2.4449 16.4408 1.679 15.6857 1.679 14.7587V2.73294ZM9.0671 2.90754C9.0203 2.90744 8.9754 2.88903 8.942 2.85624L7.8593 1.79064C7.60372 1.53872 7.25876 1.39828 6.8999 1.40004H1.8554C1.1084 1.40004 0.5 1.99764 0.5 2.73294V14.7587C0.5 16.3256 1.796 17.6 3.3872 17.6H15.6128C17.204 17.6 18.5 16.3256 18.5 14.7587V5.74884C18.5 4.18284 17.204 2.90754 15.6128 2.90754H9.0671Z" fill="white"/>
</svg>
