<svg width="19" height="19" viewBox="0 0 19 19" fill="none" xmlns="http://www.w3.org/2000/svg">
<path d="M18.11 8.657C18.2843 8.47795 18.4067 8.25494 18.4641 8.01176C18.5216 7.76859 18.5119 7.51437 18.4362 7.27625C18.2825 6.78425 17.8835 6.43325 17.3937 6.359L13.0355 5.69825C12.9427 5.68343 12.8551 5.64597 12.7802 5.5892C12.7054 5.53242 12.6457 5.45808 12.6065 5.37275L10.658 1.25C10.439 0.788 9.99497 0.5 9.49997 0.5C9.00497 0.5 8.56172 0.788 8.34272 1.25075L6.39497 5.37275C6.3556 5.45814 6.29578 5.53251 6.22083 5.58928C6.14587 5.64605 6.05808 5.68348 5.96522 5.69825L1.60772 6.35975C1.11572 6.4325 0.717472 6.785 0.563722 7.27625C0.487858 7.51448 0.478138 7.76884 0.5356 8.01216C0.593063 8.25549 0.715548 8.47863 0.889972 8.65775L4.04297 11.8663C4.17797 12.0027 4.23947 12.2 4.20797 12.3927L3.46397 16.9227C3.42995 17.1144 3.43745 17.3111 3.48597 17.4997C3.53449 17.6882 3.6229 17.8641 3.74522 18.0155C3.93008 18.2479 4.19068 18.408 4.48154 18.4679C4.77241 18.5278 5.07507 18.4837 5.33672 18.3433L9.23447 16.2042C9.31602 16.1606 9.40709 16.1377 9.4996 16.1377C9.5921 16.1377 9.68317 16.1606 9.76472 16.2042L13.6625 18.3433C13.8522 18.4475 14.0547 18.5 14.2625 18.5C14.6442 18.5 15.005 18.323 15.254 18.0155C15.5015 17.7095 15.6012 17.321 15.5352 16.9227L14.7912 12.3927C14.7755 12.2983 14.7821 12.2014 14.8107 12.1099C14.8392 12.0185 14.8888 11.935 14.9555 11.8663L18.1085 8.657H18.11Z" fill="white"/>
</svg>
