<svg width="19" height="15" viewBox="0 0 19 15" fill="none" xmlns="http://www.w3.org/2000/svg">
<path opacity="0.9" d="M4.03937 8.46346V6.25704H5.60253C6.68726 6.25704 7.40253 5.65546 7.40253 4.7403C7.40253 3.8242 6.70526 3.25767 5.57505 3.25767C4.46284 3.25767 3.71253 3.91136 3.67747 4.89662H0.738737C0.782316 2.4382 2.68842 0.868408 5.64611 0.868408C8.47116 0.868408 10.4123 2.27241 10.4123 4.30451C10.4123 5.75209 9.43274 6.89367 8.00316 7.15609V7.32093C9.75958 7.50472 10.8803 8.64725 10.8803 10.2682C10.8803 12.5447 8.70895 14.1316 5.594 14.1316C2.61832 14.1316 0.613684 12.5267 0.5 10.0598H3.58937C3.63389 11.0185 4.41926 11.6116 5.64611 11.6116C6.79337 11.6116 7.58821 10.9664 7.58821 10.0247C7.58821 9.05651 6.83789 8.46346 5.60158 8.46346H4.03937ZM15.2609 13.7915V4.09514H15.0933L12.02 6.1443V3.38841L15.2609 1.20946H18.5V13.7924H15.26L15.2609 13.7915Z" fill="white"/>
</svg>
