<svg width="23" height="23" viewBox="0 0 23 23" fill="none" xmlns="http://www.w3.org/2000/svg">
<path d="M21.5408 8.88642C21.5444 8.94502 21.5388 9.00382 21.5241 9.06066L20.1733 14.2236C20.137 14.3524 20.0593 14.4657 19.9523 14.546C19.8453 14.6263 19.7148 14.6692 19.581 14.668L11.4745 14.7067H3.36528C3.08368 14.7067 2.83728 14.5237 2.76952 14.2623L1.41872 9.08002C1.40379 9.02143 1.39844 8.9608 1.40288 8.9005C0.88016 8.74386 0.5 8.2757 0.5 7.7257C0.5 7.04634 1.07816 6.4937 1.7892 6.4937C2.50024 6.4937 3.07928 7.04634 3.07928 7.7257C3.07928 8.1085 2.89536 8.45082 2.60848 8.6761L4.29984 10.305C4.72752 10.7168 5.32064 10.9527 5.92784 10.9527C6.64504 10.9527 7.3288 10.6271 7.76 10.0815L10.5399 6.56234C10.421 6.45058 10.3262 6.31577 10.2611 6.16614C10.1961 6.0165 10.1622 5.85518 10.1615 5.69202C10.1615 5.01266 10.7397 4.46002 11.4507 4.46002C12.1626 4.46002 12.7408 5.01266 12.7408 5.69202C12.7408 6.02114 12.6035 6.32034 12.3826 6.5421L12.3853 6.54474L15.1441 10.0735C15.5753 10.6235 16.2617 10.9527 16.9815 10.9527C17.594 10.9527 18.1695 10.7239 18.6025 10.3103L20.3053 8.6849C20.1565 8.57291 20.0356 8.42809 19.952 8.26171C19.8683 8.09534 19.8242 7.91191 19.823 7.7257C19.823 7.04634 20.4012 6.4937 21.1122 6.4937C21.8242 6.4937 22.4023 7.04634 22.4023 7.7257C22.4023 8.2625 22.0415 8.71746 21.5399 8.8873L21.5408 8.88642ZM20.0413 16.5451C20.0413 16.2212 19.7667 15.959 19.427 15.959H3.54304C3.20424 15.959 2.9288 16.2212 2.9288 16.5451V17.9531C2.9288 18.2778 3.20424 18.54 3.54304 18.54H19.427C19.7667 18.54 20.0413 18.2778 20.0413 17.9531V16.5451Z" fill="white"/>
</svg>
