<svg width="49" height="48" viewBox="0 0 49 48" fill="none" xmlns="http://www.w3.org/2000/svg">
<g id="Group">
<path id="Vector" opacity="0.2" d="M5.64286 0H43.3571C44.7211 0 46.0292 0.541835 46.9937 1.50631C47.9582 2.47078 48.5 3.77889 48.5 5.14286V42.8571C48.5 44.2211 47.9582 45.5292 46.9937 46.4937C46.0292 47.4582 44.7211 48 43.3571 48H5.64286C4.27889 48 2.97078 47.4582 2.00631 46.4937C1.04184 45.5292 0.5 44.2211 0.5 42.8571L0.5 5.14286C0.5 3.77889 1.04184 2.47078 2.00631 1.50631C2.97078 0.541835 4.27889 0 5.64286 0V0Z" fill="white"/>
<g id="Mask group">
<mask id="mask0_33_2034" style="mask-type:luminance" maskUnits="userSpaceOnUse" x="0" y="0" width="49" height="48">
<g id="Group_2">
<path id="Vector_2" d="M5.64286 0H43.3571C44.7211 0 46.0292 0.541835 46.9937 1.50631C47.9582 2.47078 48.5 3.77889 48.5 5.14286V42.8571C48.5 44.2211 47.9582 45.5292 46.9937 46.4937C46.0292 47.4582 44.7211 48 43.3571 48H5.64286C4.27889 48 2.97078 47.4582 2.00631 46.4937C1.04184 45.5292 0.5 44.2211 0.5 42.8571L0.5 5.14286C0.5 3.77889 1.04184 2.47078 2.00631 1.50631C2.97078 0.541835 4.27889 0 5.64286 0V0Z" fill="white"/>
</g>
</mask>
<g mask="url(#mask0_33_2034)">
<g id="Group_3">
<g id="Group_4">
<path id="Vector_3" d="M14.5007 8.42828H10.5004C9.08022 8.42828 7.92896 9.57955 7.92896 10.9997V19.9997C7.92896 21.4199 9.08022 22.5711 10.5004 22.5711H14.5007C15.9208 22.5711 17.0721 21.4199 17.0721 19.9997V10.9997C17.0721 9.57955 15.9208 8.42828 14.5007 8.42828Z" stroke="white" stroke-width="0.857143"/>
<path id="Vector_4" d="M26.5007 8.42828H22.5004C21.0802 8.42828 19.929 9.57955 19.929 10.9997V19.9997C19.929 21.4199 21.0802 22.5711 22.5004 22.5711H26.5007C27.9208 22.5711 29.0721 21.4199 29.0721 19.9997V10.9997C29.0721 9.57955 27.9208 8.42828 26.5007 8.42828Z" stroke="white" stroke-width="0.857143"/>
<path id="Vector_5" d="M38.5007 8.42828H34.5004C33.0802 8.42828 31.929 9.57955 31.929 10.9997V19.9997C31.929 21.4199 33.0802 22.5711 34.5004 22.5711H38.5007C39.9208 22.5711 41.0721 21.4199 41.0721 19.9997V10.9997C41.0721 9.57955 39.9208 8.42828 38.5007 8.42828Z" stroke="white" stroke-width="0.857143"/>
<path id="Vector_6" d="M14.5007 25.428H10.5004C9.08022 25.428 7.92896 26.5793 7.92896 27.9994V36.9994C7.92896 38.4196 9.08022 39.5709 10.5004 39.5709H14.5007C15.9208 39.5709 17.0721 38.4196 17.0721 36.9994V27.9994C17.0721 26.5793 15.9208 25.428 14.5007 25.428Z" stroke="white" stroke-width="0.857143"/>
<path id="Vector_7" d="M26.5007 25.428H22.5004C21.0802 25.428 19.929 26.5793 19.929 27.9994V36.9994C19.929 38.4196 21.0802 39.5709 22.5004 39.5709H26.5007C27.9208 39.5709 29.0721 38.4196 29.0721 36.9994V27.9994C29.0721 26.5793 27.9208 25.428 26.5007 25.428Z" stroke="white" stroke-width="0.857143"/>
<path id="Vector_8" d="M38.5007 25.428H34.5004C33.0802 25.428 31.929 26.5793 31.929 27.9994V36.9994C31.929 38.4196 33.0802 39.5709 34.5004 39.5709H38.5007C39.9208 39.5709 41.0721 38.4196 41.0721 36.9994V27.9994C41.0721 26.5793 39.9208 25.428 38.5007 25.428Z" stroke="white" stroke-width="0.857143"/>
</g>
</g>
</g>
</g>
</g>
</svg>
