<svg width="49" height="48" viewBox="0 0 49 48" fill="none" xmlns="http://www.w3.org/2000/svg">
<g id="Group">
<path id="Vector" opacity="0.2" d="M5.64286 0H43.3571C44.7211 0 46.0292 0.541835 46.9937 1.50631C47.9582 2.47078 48.5 3.77889 48.5 5.14286V42.8571C48.5 44.2211 47.9582 45.5292 46.9937 46.4937C46.0292 47.4582 44.7211 48 43.3571 48H5.64286C4.27889 48 2.97078 47.4582 2.00631 46.4937C1.04184 45.5292 0.5 44.2211 0.5 42.8571L0.5 5.14286C0.5 3.77889 1.04184 2.47078 2.00631 1.50631C2.97078 0.541835 4.27889 0 5.64286 0V0Z" fill="white"/>
<g id="Mask group">
<mask id="mask0_33_795" style="mask-type:luminance" maskUnits="userSpaceOnUse" x="0" y="0" width="49" height="48">
<g id="Group_2">
<path id="Vector_2" d="M5.64286 0H43.3571C44.7211 0 46.0292 0.541835 46.9937 1.50631C47.9582 2.47078 48.5 3.77889 48.5 5.14286V42.8571C48.5 44.2211 47.9582 45.5292 46.9937 46.4937C46.0292 47.4582 44.7211 48 43.3571 48H5.64286C4.27889 48 2.97078 47.4582 2.00631 46.4937C1.04184 45.5292 0.5 44.2211 0.5 42.8571L0.5 5.14286C0.5 3.77889 1.04184 2.47078 2.00631 1.50631C2.97078 0.541835 4.27889 0 5.64286 0V0Z" fill="white"/>
</g>
</mask>
<g mask="url(#mask0_33_795)">
<g id="Group_3">
<path id="Vector_3" d="M35.2143 11.5714H13.7857C11.8922 11.5714 10.3572 13.1064 10.3572 15V33C10.3572 34.8935 11.8922 36.4286 13.7857 36.4286H35.2143C37.1079 36.4286 38.6429 34.8935 38.6429 33V15C38.6429 13.1064 37.1079 11.5714 35.2143 11.5714Z" stroke="white" stroke-width="0.857143"/>
<path id="Vector_4" d="M35.2143 -16.7143H13.7857C11.8922 -16.7143 10.3572 -15.1793 10.3572 -13.2857V4.71428C10.3572 6.60782 11.8922 8.14285 13.7857 8.14285H35.2143C37.1079 8.14285 38.6429 6.60782 38.6429 4.71428V-13.2857C38.6429 -15.1793 37.1079 -16.7143 35.2143 -16.7143Z" stroke="white" stroke-width="0.857143"/>
<path id="Vector_5" d="M35.2143 39.8571H13.7857C11.8922 39.8571 10.3572 41.3921 10.3572 43.2857V61.2857C10.3572 63.1792 11.8922 64.7143 13.7857 64.7143H35.2143C37.1079 64.7143 38.6429 63.1792 38.6429 61.2857V43.2857C38.6429 41.3921 37.1079 39.8571 35.2143 39.8571Z" stroke="white" stroke-width="0.857143"/>
</g>
</g>
</g>
</g>
</svg>
