<svg width="13" height="15" viewBox="0 0 13 15" fill="none" xmlns="http://www.w3.org/2000/svg">
<path d="M12.116 12.0616C11.7056 11.8888 11.5296 11.6592 11.5464 11.3176C11.564 10.9176 11.3432 10.6248 11.2384 10.5096C11.3016 10.26 11.4864 9.4008 11.2384 8.6536C10.9712 7.8544 10.1568 6.6336 9.31598 5.4336C8.97198 4.9408 8.95598 4.4056 8.93678 3.7856C8.91918 3.1936 8.89838 2.5224 8.57678 1.7776C8.22798 0.9656 7.52798 0.5 6.65518 0.5C6.13239 0.501004 5.6222 0.660561 5.19198 0.9576C4.35198 1.5528 4.46398 2.8504 4.53678 3.7096C4.54718 3.8272 4.55598 3.9384 4.56158 4.0328C4.61038 4.8744 4.56638 5.3176 4.50798 5.452C4.47038 5.54 4.28478 5.7904 4.08878 6.056C3.88558 6.3304 3.65598 6.6416 3.46718 6.9312C3.24238 7.28 3.06078 7.8136 2.88478 8.3288C2.75678 8.7056 2.63518 9.0624 2.51678 9.2752C2.29278 9.6848 2.34878 10.0672 2.39518 10.2432C2.31038 10.304 2.18798 10.4232 2.08478 10.6472C1.95998 10.9208 1.70638 11.068 1.17918 11.1728C0.936785 11.2232 0.769585 11.328 0.682385 11.4832C0.554385 11.7096 0.623985 11.9936 0.687185 12.188C0.780785 12.4736 0.722385 12.6544 0.616785 12.9824C0.592785 13.0584 0.564785 13.144 0.536785 13.2384C0.514278 13.3049 0.506907 13.3757 0.515211 13.4454C0.523515 13.5152 0.547284 13.5822 0.584785 13.6416C0.783185 13.9544 1.36398 14.0648 1.96238 14.1376C2.31998 14.1808 2.71038 14.3272 3.08878 14.4696C3.45918 14.608 3.84238 14.752 4.19038 14.796C4.24318 14.8024 4.29518 14.8056 4.34638 14.8056C4.87198 14.8056 5.10958 14.448 5.18478 14.3008C5.68249 14.1973 6.18799 14.1358 6.69598 14.1168C7.20131 14.1104 7.70563 14.1638 8.19838 14.276C8.25598 14.3896 8.40798 14.6488 8.65118 14.7824C8.78398 14.8568 8.96958 14.9 9.15998 14.9C9.36318 14.9 9.74958 14.8504 10.0552 14.52C10.3592 14.1888 11.1216 13.7648 11.6784 13.456C11.8024 13.3864 11.9184 13.3224 12.02 13.264C12.332 13.0856 12.5032 12.832 12.488 12.5664C12.4799 12.4561 12.4409 12.3502 12.3754 12.2611C12.3098 12.1719 12.2205 12.1031 12.1176 12.0624L12.116 12.0616ZM5.19838 11.9976C5.15918 11.7168 4.80638 11.4376 4.39838 11.1144C4.06478 10.8504 3.68638 10.5504 3.58238 10.2968C3.36638 9.7736 3.53678 8.8536 3.83278 8.38C3.97918 8.1432 4.09838 7.7832 4.21438 7.436C4.33918 7.06 4.46798 6.6712 4.61198 6.5016C4.84078 6.236 5.05198 5.7192 5.08958 5.3128C5.30318 5.5224 5.63518 5.7888 5.94238 5.7888C5.98839 5.78881 6.03418 5.78235 6.07838 5.7696C6.28878 5.7072 6.59758 5.524 6.89598 5.3472C7.15358 5.1944 7.47038 5.0064 7.59038 4.9888C7.79518 5.2912 8.98478 7.9944 9.10638 8.8624C9.17472 9.35443 9.15549 9.85467 9.04958 10.34C9.00268 10.3333 8.95537 10.3298 8.90798 10.3296C8.57678 10.3296 8.48878 10.5152 8.46638 10.6256C8.40718 10.9136 8.40078 11.8352 8.40078 12.0424C8.28078 12.1984 7.67438 12.9352 6.80478 13.0672C6.45038 13.12 6.11918 13.1472 5.82078 13.1472C5.56638 13.1472 5.40398 13.1264 5.33598 13.116L4.89918 12.6024C5.07118 12.5152 5.24318 12.3304 5.19838 11.9984V11.9976ZM5.75278 3.5288C5.73925 3.53477 5.72591 3.54117 5.71278 3.548C5.7115 3.5172 5.70857 3.48649 5.70398 3.456C5.65598 3.1736 5.47358 2.9688 5.27038 2.9688C5.25484 2.96892 5.23932 2.97026 5.22398 2.9728C5.10318 2.9936 5.00798 3.0864 4.95598 3.2192C5.00158 2.9288 5.16158 2.7144 5.35198 2.7144C5.57438 2.7144 5.76318 3.0224 5.76318 3.388C5.76318 3.4336 5.75998 3.48 5.75278 3.5288ZM7.48558 3.7464C7.50682 3.67691 7.51761 3.60466 7.51758 3.532C7.51758 3.2008 7.31278 2.9416 7.05118 2.9416C6.79598 2.9416 6.58878 3.2064 6.58878 3.532C6.58878 3.5544 6.58878 3.5768 6.59118 3.5992C6.57786 3.59383 6.56453 3.5885 6.55118 3.5832C6.52216 3.49162 6.50759 3.39607 6.50798 3.3C6.50798 2.904 6.75438 2.5816 7.05678 2.5816C7.36078 2.5816 7.60638 2.904 7.60638 3.3C7.60638 3.4648 7.56238 3.6224 7.48638 3.7472L7.48558 3.7464ZM7.26158 4.5168C7.25758 4.5368 7.24878 4.5456 7.14558 4.6008C7.07865 4.63574 7.01301 4.67309 6.94878 4.7128L6.89518 4.7472C6.67758 4.8816 6.16958 5.1984 6.03198 5.2168C5.93838 5.2296 5.87998 5.1928 5.75038 5.1016C5.71922 5.07983 5.68775 5.05849 5.65598 5.0376C5.42158 4.8792 5.27038 4.7048 5.25358 4.6368C5.32958 4.576 5.51998 4.424 5.61678 4.3336C5.81438 4.1456 6.01278 4.0192 6.11038 4.0192L6.12558 4.02C6.24078 4.0416 6.52558 4.1576 6.73358 4.2432C6.82958 4.2824 6.91278 4.3168 6.97118 4.3376C7.15518 4.4032 7.25118 4.4856 7.26238 4.5168H7.26158ZM8.91598 13.316C9.01998 12.836 9.13918 12.1816 9.11998 11.796C9.11518 11.708 9.10798 11.6128 9.10078 11.5208C9.08718 11.3488 9.06638 11.0928 9.08718 11.0168C9.09181 11.0145 9.09663 11.0126 9.10158 11.0112C9.10158 11.232 9.14958 11.6712 9.49118 11.8248C9.59358 11.8704 9.70958 11.8936 9.83758 11.8936C10.1808 11.8936 10.5608 11.7208 10.7176 11.5608C10.8029 11.4693 10.8776 11.3684 10.94 11.26C10.9544 11.3057 10.9598 11.3538 10.956 11.4016C10.9352 11.7264 11.0888 12.1576 11.3816 12.3168L11.424 12.34C11.528 12.396 11.8056 12.5456 11.8096 12.616C11.8096 12.616 11.8072 12.624 11.792 12.64C11.7224 12.704 11.4784 12.832 11.2424 12.956C10.8232 13.176 10.3488 13.4248 10.1352 13.6552C9.83518 13.98 9.49518 14.1976 9.29038 14.1976C9.26762 14.198 9.24494 14.1947 9.22318 14.188C9.00078 14.116 8.81758 13.7864 8.91598 13.316ZM1.32398 12.0896C1.30158 11.9808 1.28398 11.8944 1.30318 11.8112C1.31678 11.7488 1.61518 11.6832 1.74158 11.6544C1.91998 11.6144 2.10478 11.5736 2.22558 11.4984C2.38878 11.3968 2.47678 11.2096 2.55518 11.044C2.61118 10.924 2.66958 10.8008 2.73918 10.7608C2.74567 10.7568 2.75319 10.7549 2.76078 10.7552C2.89038 10.7552 3.16318 11.036 3.32078 11.2872C3.36078 11.3512 3.43438 11.4776 3.51918 11.624C3.77518 12.064 4.12478 12.664 4.30718 12.8664C4.47198 13.0472 4.73918 13.3952 4.67278 13.6944C4.62478 13.9264 4.36958 14.1144 4.30958 14.156C4.28303 14.1617 4.25593 14.1644 4.22878 14.164C3.87838 14.164 3.18638 13.8648 2.81438 13.7048L2.75998 13.6808C2.55198 13.5912 2.21278 13.5352 1.88478 13.4808C1.62398 13.4368 1.26718 13.3776 1.20798 13.324C1.15998 13.2688 1.21598 13.0888 1.26398 12.9304C1.29998 12.8168 1.33598 12.6984 1.35598 12.5752C1.37581 12.4128 1.36495 12.248 1.32398 12.0896Z" fill="white"/>
</svg>
