<svg width="12" height="15" viewBox="0 0 12 15" fill="none" xmlns="http://www.w3.org/2000/svg">
<path d="M8.95367 0.5H9.05244C9.13178 1.48 8.75767 2.21267 8.30344 2.74311C7.857 3.26967 7.24644 3.78067 6.25867 3.70289C6.19333 2.73689 6.56744 2.05867 7.02089 1.52978C7.44322 1.03667 8.214 0.598 8.95367 0.5ZM11.875 10.7636V10.7916C11.6071 11.5989 11.215 12.3596 10.713 13.0463C10.2697 13.66 9.72756 14.4852 8.75844 14.4852C7.92078 14.4852 7.36467 13.9439 6.506 13.9291C5.59833 13.9136 5.09822 14.3826 4.26833 14.5H3.98522C3.37622 14.4113 2.88389 13.9244 2.52533 13.4873C1.32929 12.0414 0.620473 10.2546 0.5 8.382L0.5 7.75356C0.564556 6.22211 1.30344 4.97689 2.285 4.37411C2.80378 4.05289 3.51622 3.77989 4.30956 3.902C4.64944 3.95489 4.99711 4.07233 5.30122 4.18822C5.58978 4.30022 5.95067 4.49778 6.29289 4.48767C6.52467 4.48067 6.75489 4.35933 6.98822 4.27378C7.67267 4.02489 8.34156 3.73944 9.22589 3.874C10.2876 4.035 11.0412 4.51022 11.5071 5.24289C10.6088 5.81844 9.89867 6.68567 10.02 8.16733C10.1273 9.51289 10.9043 10.3 11.875 10.7636Z" fill="white"/>
</svg>
