<svg width="18" height="14" viewBox="0 0 18 14" fill="none" xmlns="http://www.w3.org/2000/svg">
<path fill-rule="evenodd" clip-rule="evenodd" d="M6.97619 0.5H11.0238C12.7414 0.5 14.3886 1.18231 15.6032 2.39683C16.8177 3.61135 17.5 5.2586 17.5 6.97619C17.5 8.69378 16.8177 10.341 15.6032 11.5555C14.3886 12.7701 12.7414 13.4524 11.0238 13.4524H6.97619C5.2586 13.4524 3.61135 12.7701 2.39683 11.5555C1.18231 10.341 0.5 8.69378 0.5 6.97619C0.5 5.2586 1.18231 3.61135 2.39683 2.39683C3.61135 1.18231 5.2586 0.5 6.97619 0.5ZM6.8669 2.06643C5.56475 2.06643 4.31594 2.58371 3.39518 3.50446C2.47442 4.42522 1.95714 5.67404 1.95714 6.97619C1.95714 8.27834 2.47442 9.52716 3.39518 10.4479C4.31594 11.3687 5.56475 11.886 6.8669 11.886H11.0117C12.3138 11.886 13.5626 11.3687 14.4834 10.4479C15.4042 9.52716 15.9214 8.27834 15.9214 6.97619C15.9214 5.67404 15.4042 4.42522 14.4834 3.50446C13.5626 2.58371 12.3138 2.06643 11.0117 2.06643H6.8669ZM5.79024 3.93157H7.7339L10.3236 8.12086V3.93238H12.2227V9.99976H10.36L7.67562 5.79186V10.0022H5.78619L5.79024 3.93157Z" fill="white"/>
</svg>
