<svg width="17" height="13" viewBox="0 0 17 13" fill="none" xmlns="http://www.w3.org/2000/svg">
<path d="M8.99562 12.9524L6.47638 11.8628V0C6.47638 0 11.952 0.928524 12.7057 3.22757C13.4593 5.52824 12.2847 7.01776 11.8719 7.06148C10.7223 7.1829 10.2852 6.45595 10.2852 6.45595V2.74429L9.03528 2.21971L8.99562 12.9524ZM9.71447 11.5924V12.9524C9.71447 12.9524 15.9203 11.0597 16.8334 10.3295C17.7466 9.60095 14.6955 7.786 13.0562 8.14057C13.0562 8.14057 11.3141 8.22071 9.73552 8.86995C9.72014 8.87643 9.73552 10.0923 9.73552 10.0923L13.741 9.2059L15.152 9.79686L9.71447 11.5924ZM5.64742 10.9666C5.64742 10.9666 4.88485 11.352 3.18566 11.3325C1.48566 11.3131 -0.0192425 10.8509 0.000186067 9.84867C0.0196146 8.84648 2.81409 7.74795 5.628 7.28571V8.69267L2.63842 9.46333C2.63842 9.46333 2.12681 10.0996 2.81409 10.119C3.77802 10.1396 4.7396 10.0157 5.66685 9.75152L5.64742 10.9658V10.9666Z" fill="white"/>
</svg>
