<svg width="13" height="13" viewBox="0 0 13 13" fill="none" xmlns="http://www.w3.org/2000/svg">
<path d="M7.25 0.690002H5.75C5.33579 0.690002 5 1.02579 5 1.44V11.94C5 12.3542 5.33579 12.69 5.75 12.69H7.25C7.66421 12.69 8 12.3542 8 11.94V1.44C8 1.02579 7.66421 0.690002 7.25 0.690002Z" fill="white"/>
<path d="M0.5 5.94V7.44C0.5 7.85422 0.835786 8.19 1.25 8.19H11.75C12.1642 8.19 12.5 7.85422 12.5 7.44V5.94C12.5 5.52579 12.1642 5.19 11.75 5.19H1.25C0.835786 5.19 0.5 5.52579 0.5 5.94Z" fill="white"/>
</svg>
