<svg width="15" height="15" viewBox="0 0 15 15" fill="none" xmlns="http://www.w3.org/2000/svg">
<path fill-rule="evenodd" clip-rule="evenodd" d="M9.54201 3.526C9.13649 3.12048 8.65507 2.7988 8.12523 2.57933C7.59539 2.35987 7.02751 2.24691 6.45401 2.24691C5.88052 2.24691 5.31264 2.35987 4.7828 2.57933C4.25296 2.7988 3.77153 3.12048 3.36601 3.526C2.96049 3.93152 2.63881 4.41295 2.41935 4.94279C2.19988 5.47263 2.08692 6.04051 2.08692 6.614C2.08692 7.1875 2.19988 7.75537 2.41935 8.28521C2.63881 8.81505 2.96049 9.29648 3.36601 9.702C3.77153 10.1075 4.25296 10.4292 4.7828 10.6487C5.31264 10.8681 5.88052 10.9811 6.45401 10.9811C7.02751 10.9811 7.59539 10.8681 8.12523 10.6487C8.65507 10.4292 9.13649 10.1075 9.54201 9.702C9.94753 9.29648 10.2692 8.81505 10.4887 8.28521C10.7081 7.75537 10.8211 7.1875 10.8211 6.614C10.8211 6.04051 10.7081 5.47263 10.4887 4.94279C10.2692 4.41295 9.94753 3.93152 9.54201 3.526ZM14.085 14.245C13.921 14.4087 13.6987 14.5006 13.467 14.5006C13.2353 14.5006 13.013 14.4087 12.849 14.245L10.098 11.493C7.70301 13.283 4.30701 13.114 2.13101 10.938C1.56308 10.3703 1.11256 9.69631 0.805183 8.95447C0.497807 8.21263 0.3396 7.4175 0.3396 6.6145C0.3396 5.8115 0.497807 5.01637 0.805183 4.27453C1.11256 3.53269 1.56308 2.85868 2.13101 2.291C2.69869 1.72307 3.3727 1.27255 4.11454 0.965171C4.85638 0.657795 5.65151 0.499588 6.45451 0.499588C7.25751 0.499588 8.05264 0.657795 8.79448 0.965171C9.53632 1.27255 10.2103 1.72307 10.778 2.291C12.954 4.467 13.124 7.863 11.333 10.258L14.085 13.009C14.425 13.35 14.425 13.903 14.085 14.245Z" fill="#898989"/>
</svg>
