<svg width="14" height="14" viewBox="0 0 14 14" fill="none" xmlns="http://www.w3.org/2000/svg">
<path d="M3.39575 1.60256L3.37788 1.61881C3.41525 1.57981 3.46725 1.53756 3.503 1.51481C4.52025 0.853437 5.69675 0.5 7 0.5C8.22038 0.5 9.36275 0.837188 10.3394 1.423C10.4093 1.46525 10.6026 1.59769 10.7018 1.71794C9.7625 0.680375 6.99432 2.90662 6.99432 2.90662C6.038 2.16887 5.15807 1.66675 4.50238 1.488C3.95475 1.33769 3.57613 1.46363 3.39575 1.60256ZM11.7686 2.58406C11.7401 2.55156 11.7084 2.52231 11.68 2.48981C11.4419 2.22819 11.1494 2.16481 10.8854 2.18269C10.6457 2.25744 9.53663 2.65719 8.17 3.94744C8.17 3.94744 9.70888 5.44325 10.6506 6.97237C11.5923 8.50231 12.1553 9.704 11.8092 11.3721C12.8993 10.1768 13.5024 8.61685 13.5 6.99919C13.5023 5.36156 12.8831 3.78392 11.7686 2.58406ZM9.42125 7.62563C8.8215 6.95587 8.20183 6.30422 7.56307 5.67156C7.37521 5.48402 7.18562 5.29822 6.99432 5.11419L6.30532 5.80806C5.80644 6.31181 5.15888 6.96994 4.79975 7.35344C4.16032 8.03594 2.32732 10.1801 2.22413 11.3818C2.22413 11.3818 1.81625 10.4279 2.71163 8.22931C3.29663 6.792 5.06219 4.634 5.79994 3.93119C5.79994 3.93119 5.12557 3.18937 4.28057 2.67669L4.27488 2.67506C4.27488 2.67506 4.26594 2.66775 4.2505 2.65881C3.84425 2.41506 3.39982 2.22819 2.97244 2.20381C2.7001 2.23033 2.44662 2.35476 2.25907 2.554C1.11244 3.82428 0.513008 5.49549 0.59084 7.20497C0.668672 8.91445 1.41749 10.5243 2.6748 11.6851C3.93211 12.8459 5.59648 13.4641 7.30672 13.4055C9.01696 13.3469 10.6351 12.6162 11.81 11.3721C11.81 11.3704 11.6727 10.5141 10.7984 9.28394C10.5929 8.99631 9.84132 8.09769 9.42044 7.62644L9.42125 7.62563Z" fill="white"/>
</svg>
